<svg width="50" height="50" viewBox="0 0 50 50" fill="none" xmlns="http://www.w3.org/2000/svg">
<path d="M25.0003 27.0832C26.1509 27.0832 27.0837 26.1504 27.0837 24.9998C27.0837 23.8492 26.1509 22.9165 25.0003 22.9165C23.8497 22.9165 22.917 23.8492 22.917 24.9998C22.917 26.1504 23.8497 27.0832 25.0003 27.0832Z" stroke="white" stroke-width="2" stroke-linecap="round" stroke-linejoin="round"/>
<path d="M39.5833 27.0832C40.7339 27.0832 41.6667 26.1504 41.6667 24.9998C41.6667 23.8492 40.7339 22.9165 39.5833 22.9165C38.4327 22.9165 37.5 23.8492 37.5 24.9998C37.5 26.1504 38.4327 27.0832 39.5833 27.0832Z" stroke="white" stroke-width="2" stroke-linecap="round" stroke-linejoin="round"/>
<path d="M10.4163 27.0832C11.5669 27.0832 12.4997 26.1504 12.4997 24.9998C12.4997 23.8492 11.5669 22.9165 10.4163 22.9165C9.26575 22.9165 8.33301 23.8492 8.33301 24.9998C8.33301 26.1504 9.26575 27.0832 10.4163 27.0832Z" stroke="white" stroke-width="2" stroke-linecap="round" stroke-linejoin="round"/>
</svg>
