<svg width="24" height="24" viewBox="0 0 24 24" fill="none" xmlns="http://www.w3.org/2000/svg">
<path d="M10.6804 13.31C11.6953 14.3257 12.8422 15.2002 14.0904 15.91L15.3604 14.64C15.6323 14.3711 15.9756 14.1858 16.3495 14.1061C16.7235 14.0263 17.1125 14.0554 17.4704 14.19C18.3777 14.5285 19.3204 14.7634 20.2804 14.89C20.761 14.9579 21.2004 15.1982 21.5169 15.5662C21.8333 15.9342 22.0052 16.4047 22.0004 16.89V19.89C22.0016 20.1685 21.9445 20.4441 21.8329 20.6993C21.7214 20.9545 21.5577 21.1836 21.3525 21.3718C21.1473 21.5601 20.905 21.7035 20.6412 21.7927C20.3773 21.8819 20.0978 21.915 19.8204 21.89C16.7433 21.5556 13.7874 20.5041 11.1904 18.82C9.98569 18.055 8.86895 17.1596 7.86042 16.15M5.19042 12.81C3.50628 10.213 2.45478 7.25714 2.12042 4.17997C2.09543 3.90344 2.1283 3.62474 2.21692 3.3616C2.30555 3.09846 2.44799 2.85666 2.63519 2.6516C2.82238 2.44653 3.05023 2.28268 3.30421 2.1705C3.5582 2.05831 3.83276 2.00024 4.11042 1.99997H7.11042C7.59573 1.9952 8.06621 2.16705 8.43418 2.48351C8.80215 2.79996 9.0425 3.23942 9.11042 3.71997C9.23704 4.68004 9.47187 5.6227 9.81042 6.52997C9.94497 6.8879 9.97408 7.27689 9.89433 7.65086C9.81457 8.02482 9.62928 8.36809 9.36042 8.63998L8.09042 9.90997" stroke="#F8FAFC" stroke-width="2" stroke-linecap="round" stroke-linejoin="round"/>
<path d="M22 2L2 22" stroke="#F8FAFC" stroke-width="2" stroke-linecap="round" stroke-linejoin="round"/>
</svg>
