<svg width="392" height="38" viewBox="0 0 392 38" fill="none" xmlns="http://www.w3.org/2000/svg">
<path d="M0.933594 21.8589H45.8243C46.0507 22.3861 46.2771 22.9156 46.5035 23.4429C31.5422 23.4429 16.5779 23.4429 1.61051 23.4429C1.38638 22.9156 1.16451 22.3861 0.933594 21.8589Z" fill="white"/>
<path d="M54.5253 19.6627C55.0935 21.6542 55.2044 23.7838 54.5909 25.7799C52.533 23.4776 50.5023 21.1615 48.458 18.85C52.6168 18.9237 56.7733 18.8869 60.9321 18.85C60.9683 17.5631 60.991 16.2646 60.7057 15.0029C45.6418 15.0029 30.5778 15.0029 15.5139 15.0029C15.8082 14.6591 16.104 14.3169 16.4013 13.9761C31.0789 13.9761 45.7549 13.9761 60.4295 13.9761C59.932 12.8348 59.3254 11.746 58.6184 10.7253C44.0812 10.7361 29.5455 10.7483 15.0113 10.7622C12.7474 12.9954 10.5129 15.2562 8.25128 17.4894C7.2846 15.3736 6.68466 12.9815 7.17593 10.6539C7.68078 7.90964 9.62773 5.6396 11.9912 4.325C16.2406 1.87538 21.3139 1.46098 26.0953 1.84085C33.4077 2.53153 40.5842 5.15381 46.5292 9.56957C46.9367 9.93563 47.4687 10.0024 47.9939 9.97018C51.3377 9.95406 54.6769 9.97018 58.0162 9.97018C56.9466 8.734 55.7462 7.62142 54.437 6.6526C48.7976 2.57757 41.9041 0.666682 35.083 0.0473706C31.9588 0.00592967 28.8301 -0.049317 25.7104 0.0842149C18.5294 0.802524 11.2034 2.92061 5.52329 7.61494C2.21574 10.3201 -0.260956 14.4113 0.022031 18.8546C15.6791 18.8546 31.3385 18.8546 47.0001 18.8546C49.353 21.3411 51.7022 23.8276 54.0476 26.314C37.2359 26.3002 20.4235 26.2833 3.6103 26.2634C9.55755 32.4381 18.1852 35.012 26.4394 35.8339C34.9992 36.497 43.9167 35.2284 51.5415 31.0567C55.8949 28.6393 60.0333 24.8406 61 19.6743C58.8289 19.6627 56.6805 19.6697 54.5253 19.6627ZM41.9539 33.4396C33.4937 34.1924 24.9045 31.7566 17.6962 27.2856C29.7703 27.2595 41.8445 27.2403 53.9185 27.228C51.3875 31.3376 46.4658 32.9722 41.9539 33.4396Z" fill="white"/>
<path d="M61.0009 36.0288H59.7545L58.624 34.4925H58.2762V36.0288H57.2617V31.7969H58.8849C59.1168 31.7969 59.2907 31.8259 59.4646 31.8548C59.6385 31.8838 59.7835 31.9418 59.9284 32.0288C60.0733 32.1157 60.1893 32.2606 60.2762 32.4056C60.3632 32.5505 60.3922 32.7534 60.3922 32.9853C60.3922 33.3041 60.3342 33.565 60.1893 33.7679C60.0443 33.9708 59.8704 34.1157 59.6385 34.2606L61.0009 36.0288ZM59.3487 33.1012C59.3487 32.9853 59.3197 32.8983 59.2907 32.8403C59.2617 32.7534 59.1748 32.6954 59.0878 32.6664C59.0298 32.6375 58.9429 32.6085 58.8849 32.6085C58.798 32.6085 58.711 32.6085 58.5951 32.6085H58.2472V33.7389H58.5371C58.682 33.7389 58.798 33.7389 58.8849 33.7099C58.9719 33.6809 59.0588 33.6519 59.1458 33.594C59.2037 33.536 59.2617 33.478 59.2907 33.3911C59.3487 33.3041 59.3487 33.2172 59.3487 33.1012Z" fill="white"/>
<path d="M59 38C56.7971 38 55 36.2029 55 34C55 31.7971 56.7971 30 59 30C61.2029 30 63 31.7971 63 34C63 36.2029 61.2029 38 59 38ZM59 30.6957C57.1739 30.6957 55.6957 32.1739 55.6957 34C55.6957 35.8261 57.1739 37.3043 59 37.3043C60.8261 37.3043 62.3044 35.8261 62.3044 34C62.3044 32.1739 60.8261 30.6957 59 30.6957Z" fill="white"/>
<path d="M75.3069 12.4204C75.5623 12.236 75.7827 12.0075 75.9577 11.7455C76.1506 11.4491 76.3004 11.1268 76.4027 10.7883C76.5316 10.355 76.6229 9.91145 76.6755 9.46249C76.7425 8.95515 76.7951 8.35687 76.8286 7.66287L77.044 2.93408H84.8345C84.8345 4.52789 84.8345 6.11215 84.8345 7.68682C84.8345 9.26149 84.8345 10.8505 84.8345 12.4443H85.8394V17.0056H83.7482V14.4306H76.5463V17.0056H74.4551V12.406L75.3069 12.4204ZM79.1017 4.94909L78.9676 7.71075C78.9437 8.18937 78.9198 8.66798 78.8863 9.10352C78.8528 9.53907 78.8002 9.96504 78.7332 10.3575C78.6697 10.7379 78.5752 11.1125 78.4509 11.4775C78.3379 11.8178 78.1767 12.1402 77.9723 12.4347H82.5997V4.94909H79.1017Z" fill="white"/>
<path d="M93.7918 12.0708H89.7817L89.0304 14.4639H86.5898L90.6334 2.94824H92.9735L96.9836 14.4639H94.4952L93.7918 12.0708ZM90.399 10.1563H93.1744L92.739 8.67733L91.8346 5.6333H91.7676L90.8823 8.62948L90.399 10.1563Z" fill="white"/>
<path d="M101.552 4.98247V8.04087C101.557 8.91321 101.501 9.78481 101.384 10.6493C101.298 11.3608 101.094 12.053 100.781 12.6979C100.505 13.2526 100.087 13.7247 99.5706 14.0667C98.9645 14.4448 98.2806 14.6804 97.5703 14.7559L97.0918 12.8797C97.5112 12.7565 97.9027 12.5533 98.2451 12.2815C98.541 12.0189 98.772 11.6912 98.9198 11.3242C99.0956 10.8921 99.2022 10.435 99.2356 9.9697C99.2883 9.448 99.3122 8.82579 99.3122 8.11265V2.9292H106.902V14.4448H104.576V4.98247H101.552Z" fill="white"/>
<path d="M108.953 14.4448V2.9292H111.241V7.30857H113.901C114.421 7.29889 114.938 7.3899 115.423 7.5766C115.848 7.74013 116.235 7.99126 116.557 8.31369C116.873 8.6321 117.117 9.01379 117.275 9.43365C117.448 9.8924 117.534 10.3793 117.528 10.8695C117.527 11.3017 117.459 11.7311 117.327 12.1427C117.195 12.5759 116.974 12.9766 116.677 13.3187C116.38 13.6609 116.015 13.9369 115.605 14.1289C115.096 14.3585 114.541 14.4698 113.983 14.4544L108.953 14.4448ZM111.241 12.3915H113.633C114.084 12.4122 114.525 12.2559 114.863 11.956C115.016 11.8195 115.137 11.6519 115.22 11.4645C115.302 11.2772 115.344 11.0743 115.342 10.8695C115.346 10.6644 115.306 10.4607 115.223 10.2729C115.141 10.0852 115.018 9.91789 114.863 9.78303C114.518 9.48784 114.072 9.33703 113.619 9.36187H111.26L111.241 12.3915Z" fill="white"/>
<path d="M125.413 14.4448V9.6299H121.168V14.4448H118.881V2.9292H121.168V7.5766H125.413V2.9292H127.739V14.4448H125.413Z" fill="white"/>
<path d="M129.711 2.9292H137.65V4.98248H131.979V7.62448H136.812V9.68254H131.979V12.3915H137.631V14.4448H129.711V2.9292Z" fill="white"/>
<path d="M148.062 11.0229C148.064 11.4725 147.99 11.9192 147.842 12.3439C147.706 12.744 147.489 13.112 147.206 13.4256C146.919 13.7459 146.566 14.0006 146.172 14.1722C145.718 14.3624 145.229 14.4554 144.737 14.4451H139.334V2.92943H144.517C145.027 2.91694 145.535 3.00137 146.014 3.17829C146.405 3.329 146.758 3.56436 147.048 3.86751C147.321 4.15387 147.529 4.49482 147.66 4.86784C147.795 5.25084 147.862 5.65383 147.861 6.05961C147.852 6.51636 147.734 6.9643 147.517 7.36623C147.278 7.81863 146.901 8.18265 146.44 8.40486C146.707 8.53065 146.95 8.70237 147.158 8.9122C147.539 9.30126 147.816 9.78036 147.962 10.305C148.027 10.5388 148.061 10.7802 148.062 11.0229ZM145.502 6.28933C145.512 6.11236 145.484 5.93535 145.419 5.77022C145.355 5.60509 145.256 5.45568 145.129 5.33209C144.789 5.08362 144.372 4.96479 143.952 4.99705H141.626V7.52419H143.981C144.383 7.54595 144.78 7.42754 145.105 7.18915C145.236 7.07975 145.34 6.94168 145.409 6.78563C145.478 6.62958 145.51 6.45975 145.502 6.28933ZM145.636 10.9416C145.644 10.7438 145.612 10.5465 145.54 10.362C145.468 10.1775 145.359 10.0098 145.22 9.86944C144.905 9.58629 144.49 9.43994 144.067 9.4626H141.626V12.3918H144.081C144.291 12.4062 144.502 12.379 144.702 12.3116C144.901 12.2442 145.085 12.1381 145.244 11.9993C145.377 11.8586 145.481 11.6924 145.548 11.5106C145.616 11.3288 145.646 11.1352 145.636 10.9416Z" fill="white"/>
<path d="M158.524 10.7832C158.537 11.3487 158.417 11.9093 158.175 12.4201C157.945 12.8806 157.619 13.2856 157.217 13.6071C156.801 13.9398 156.323 14.187 155.811 14.3346C154.693 14.6599 153.506 14.6599 152.389 14.3346C151.875 14.1871 151.396 13.9399 150.977 13.6071C150.576 13.286 150.249 12.8808 150.02 12.4201C149.782 11.9081 149.668 11.3475 149.685 10.7832V6.55218C149.669 6.01276 149.783 5.47738 150.018 4.99155C150.253 4.50572 150.602 4.08385 151.035 3.76184C151.467 3.44184 151.953 3.20338 152.47 3.05825C153.007 2.90336 153.563 2.82443 154.121 2.82373C154.683 2.82344 155.241 2.909 155.777 3.07741C156.296 3.23094 156.782 3.47743 157.213 3.8049C157.642 4.13547 157.988 4.56239 158.223 5.05123C158.457 5.54007 158.573 6.07716 158.562 6.6192L158.524 10.7832ZM156.237 7.02125C156.245 6.69233 156.182 6.36551 156.05 6.06401C155.941 5.81659 155.778 5.59722 155.571 5.42264C155.372 5.25486 155.141 5.12947 154.892 5.05412C154.641 4.97334 154.38 4.93295 154.117 4.93447C153.85 4.9333 153.586 4.97367 153.332 5.05412C153.081 5.12887 152.848 5.25428 152.647 5.42264C152.443 5.59878 152.28 5.81774 152.169 6.06401C152.041 6.36659 151.979 6.69288 151.987 7.02125V10.3716C151.98 10.6999 152.042 11.0261 152.169 11.3288C152.278 11.58 152.442 11.804 152.647 11.9846C152.847 12.1521 153.081 12.2746 153.332 12.3435C153.587 12.4147 153.851 12.4501 154.117 12.4488C154.379 12.4504 154.64 12.415 154.892 12.3435C155.141 12.2735 155.373 12.1511 155.571 11.9846C155.779 11.8055 155.943 11.5812 156.05 11.3288C156.181 11.0271 156.245 10.7005 156.237 10.3716V7.02125Z" fill="white"/>
<path d="M167.199 5.71951C166.864 5.42985 166.471 5.21598 166.046 5.09252C165.654 4.97887 165.248 4.91929 164.84 4.91543C164.581 4.91676 164.323 4.95379 164.074 5.0255C163.822 5.09331 163.589 5.21588 163.39 5.38447C163.184 5.56369 163.021 5.78595 162.911 6.03542C162.78 6.3371 162.714 6.66355 162.72 6.99266V10.343C162.712 10.6723 162.778 10.9992 162.911 11.3003C163.024 11.5454 163.187 11.7639 163.39 11.9416C163.592 12.1075 163.824 12.2327 164.074 12.3101C164.321 12.3856 164.577 12.4243 164.835 12.425C165.235 12.4247 165.632 12.37 166.017 12.2623C166.451 12.1276 166.855 11.9115 167.209 11.6257L168.295 13.3966C167.836 13.7745 167.308 14.0591 166.74 14.2342C166.121 14.4348 165.475 14.5366 164.825 14.5357C164.283 14.5346 163.743 14.4556 163.222 14.3012C162.718 14.1541 162.243 13.9192 161.82 13.6072C161.406 13.2993 161.064 12.9059 160.815 12.4537C160.551 11.9509 160.42 11.3893 160.432 10.8216V6.51404C160.42 5.95362 160.548 5.39904 160.806 4.90109C161.05 4.44883 161.385 4.05265 161.792 3.73804C162.21 3.42093 162.684 3.18401 163.189 3.03924C163.709 2.88246 164.249 2.80343 164.792 2.80472C165.439 2.80265 166.084 2.8929 166.706 3.07275C167.294 3.23349 167.839 3.52466 168.3 3.92468L167.199 5.71951Z" fill="white"/>
<path d="M174.368 4.98248V14.4448H172.08V4.98248H169.018V2.9292H177.411V4.98248H174.368Z" fill="white"/>
<path d="M186.853 10.7834C186.866 11.3488 186.746 11.9095 186.503 12.4203C186.274 12.8807 185.948 13.2858 185.546 13.6073C185.13 13.9399 184.652 14.1871 184.139 14.3348C183.022 14.6601 181.835 14.6601 180.718 14.3348C180.196 14.1902 179.708 13.9429 179.282 13.6073C178.881 13.2861 178.554 12.881 178.325 12.4203C178.082 11.9095 177.963 11.3488 177.976 10.7834V6.55237C177.96 6.00804 178.078 5.46818 178.318 4.97946C178.558 4.49075 178.914 4.06793 179.354 3.74765C179.786 3.42765 180.272 3.18922 180.79 3.04409C181.326 2.8892 181.882 2.81027 182.441 2.80957C183.002 2.80928 183.561 2.89481 184.096 3.06323C184.615 3.21675 185.101 3.46327 185.532 3.79074C185.935 4.11087 186.262 4.51623 186.489 4.97771C186.743 5.4817 186.87 6.04058 186.858 6.60504L186.853 10.7834ZM184.565 7.02144C184.574 6.69252 184.51 6.36569 184.379 6.06419C184.27 5.81677 184.106 5.59741 183.9 5.42283C183.703 5.2556 183.473 5.13025 183.225 5.05431C182.973 4.97381 182.71 4.93343 182.445 4.93465C182.179 4.93348 181.914 4.97385 181.661 5.05431C181.41 5.12906 181.177 5.25447 180.976 5.42283C180.77 5.59741 180.606 5.81677 180.498 6.06419C180.366 6.36569 180.302 6.69252 180.311 7.02144V10.3718C180.303 10.7006 180.367 11.0273 180.498 11.329C180.603 11.5755 180.763 11.7949 180.965 11.9706C181.167 12.1464 181.407 12.274 181.665 12.3437C181.921 12.4149 182.185 12.4503 182.45 12.449C182.714 12.4502 182.976 12.4148 183.23 12.3437C183.478 12.2725 183.708 12.1502 183.905 11.9847C184.113 11.8057 184.276 11.5814 184.384 11.329C184.515 11.0273 184.578 10.7006 184.57 10.3718L184.565 7.02144Z" fill="white"/>
<path d="M190.514 2.92892V6.33192C190.489 6.61067 190.524 6.89155 190.616 7.15571C190.709 7.41988 190.857 7.66121 191.05 7.86351C191.516 8.21639 192.094 8.38663 192.677 8.34213C193.061 8.33838 193.443 8.28035 193.811 8.16981C194.168 8.06558 194.514 7.92776 194.845 7.7582V2.92892H197.132V14.4158H194.826V9.67268C194.43 9.86896 194.012 10.0183 193.581 10.1178C193.111 10.2304 192.629 10.2867 192.146 10.2853C191.613 10.2892 191.082 10.2134 190.571 10.0604C190.112 9.92058 189.686 9.68942 189.318 9.38073C188.96 9.06949 188.681 8.67735 188.504 8.23682C188.297 7.71324 188.198 7.15324 188.212 6.59036V2.91455L190.514 2.92892Z" fill="white"/>
<path d="M205.49 14.4448V9.6299H201.241V14.4448H198.973V2.9292H201.26V7.5766H205.509V2.9292H207.83V14.4448H205.49Z" fill="white"/>
<path d="M209.785 14.4448V2.9292H212.077V7.30857H214.733C215.253 7.29803 215.77 7.38908 216.255 7.5766C216.68 7.74013 217.067 7.99126 217.389 8.31369C217.706 8.63079 217.951 9.01286 218.107 9.43365C218.28 9.8924 218.366 10.3793 218.36 10.8695C218.359 11.3017 218.291 11.7311 218.159 12.1427C218.028 12.5631 217.815 12.9534 217.533 13.2913C217.23 13.6446 216.857 13.93 216.437 14.1289C215.928 14.3585 215.373 14.4698 214.815 14.4544L209.785 14.4448ZM212.077 12.3915H214.47C214.919 12.4114 215.359 12.2552 215.695 11.956C215.848 11.8195 215.969 11.6519 216.052 11.4645C216.134 11.2772 216.176 11.0743 216.174 10.8695C216.178 10.6644 216.138 10.4607 216.055 10.2729C215.973 10.0852 215.85 9.91789 215.695 9.78303C215.35 9.48784 214.904 9.33703 214.451 9.36187H212.096L212.077 12.3915ZM221.734 2.9292V14.4448H219.447V2.9292H221.734Z" fill="white"/>
<path d="M230.677 6.95438L229.543 8.71092C229.404 8.92151 229.241 9.18954 229.064 9.48628C228.887 9.78303 228.657 10.1229 228.423 10.4818C228.189 10.8408 227.944 11.2045 227.705 11.5826L226.973 12.6978C226.748 13.052 226.533 13.3871 226.332 13.6934L225.853 14.4687H223.781V2.92919H226.073V10.501H226.136L228.528 6.739L230.978 2.91003H233.065V14.4257H230.777V6.95438H230.677ZM228.571 2.52234C228.163 2.53618 227.759 2.44732 227.394 2.2639C227.095 2.10831 226.833 1.89139 226.624 1.62732C226.432 1.38357 226.287 1.10594 226.198 0.808871C226.115 0.54563 226.059 0.274609 226.03 0H227.566C227.569 0.122463 227.592 0.243649 227.633 0.358966C227.678 0.487947 227.743 0.609092 227.825 0.717932C227.91 0.829766 228.015 0.924059 228.136 0.995541C228.269 1.06888 228.419 1.10525 228.571 1.10085C228.737 1.10788 228.902 1.07158 229.05 0.995541C229.174 0.926801 229.282 0.832106 229.366 0.717932C229.45 0.609279 229.516 0.48815 229.562 0.358966C229.602 0.243445 229.623 0.122226 229.624 0H231.146C231.105 0.273747 231.045 0.544112 230.964 0.808871C230.875 1.10594 230.73 1.38357 230.538 1.62732C230.31 1.92272 230.013 2.15843 229.674 2.31429C229.335 2.47016 228.963 2.54154 228.591 2.52234H228.571Z" fill="white"/>
<path d="M239.387 14.4448V2.9292H247.306V4.98248H241.674V14.4448H239.387Z" fill="white"/>
<path d="M256.485 10.7832C256.496 11.349 256.375 11.9097 256.131 12.4201C255.902 12.8808 255.575 13.286 255.174 13.6071C254.748 13.9427 254.26 14.19 253.738 14.3346C252.621 14.6599 251.434 14.6599 250.316 14.3346C249.804 14.187 249.326 13.9398 248.909 13.6071C248.508 13.2856 248.181 12.8806 247.952 12.4201C247.71 11.9093 247.59 11.3487 247.603 10.7832V6.55218C247.587 6.01276 247.701 5.47738 247.936 4.99155C248.171 4.50572 248.52 4.08385 248.953 3.76184C249.384 3.44137 249.871 3.20288 250.388 3.05825C250.925 2.90274 251.481 2.82379 252.039 2.82373C252.599 2.82378 253.156 2.90933 253.69 3.07741C254.209 3.23094 254.695 3.47743 255.126 3.8049C255.557 4.13419 255.905 4.56075 256.14 5.0498C256.375 5.53885 256.492 6.07658 256.48 6.6192L256.485 10.7832ZM254.193 7.02125C254.2 6.69288 254.138 6.36659 254.011 6.06401C253.9 5.81774 253.737 5.59878 253.532 5.42264C253.334 5.25542 253.105 5.13007 252.857 5.05412C252.605 4.97362 252.342 4.93325 252.077 4.93447C251.811 4.93399 251.547 4.97434 251.293 5.05412C251.042 5.12887 250.809 5.25428 250.608 5.42264C250.402 5.59722 250.238 5.81659 250.13 6.06401C249.998 6.36551 249.934 6.69233 249.943 7.02125V10.3716C249.935 10.7005 249.999 11.0271 250.13 11.3288C250.237 11.5812 250.401 11.8055 250.608 11.9846C250.808 12.1512 251.042 12.2736 251.293 12.3435C251.548 12.414 251.812 12.4495 252.077 12.4488C252.341 12.4501 252.604 12.4146 252.857 12.3435C253.114 12.2709 253.352 12.1423 253.553 11.9668C253.754 11.7914 253.914 11.5735 254.02 11.3288C254.147 11.0261 254.209 10.6999 254.202 10.3716L254.193 7.02125Z" fill="white"/>
<path d="M265.157 5.71952C264.823 5.42885 264.43 5.21484 264.004 5.09252C263.614 4.97924 263.21 4.91967 262.803 4.91544C262.542 4.91699 262.283 4.95401 262.033 5.02551C261.781 5.09447 261.548 5.21692 261.348 5.38448C261.143 5.56348 260.979 5.78579 260.87 6.03542C260.736 6.3364 260.671 6.66335 260.678 6.99267V10.343C260.669 10.6725 260.734 10.9999 260.87 11.3003C260.988 11.5485 261.159 11.7675 261.372 11.9416C261.574 12.1084 261.806 12.2337 262.056 12.3101C262.303 12.3863 262.559 12.4251 262.817 12.425C263.215 12.4244 263.611 12.3697 263.995 12.2623C264.43 12.1277 264.836 11.9117 265.191 11.6257L266.277 13.3966C265.818 13.7735 265.289 14.0579 264.722 14.2342C264.096 14.4373 263.442 14.5391 262.784 14.5357C262.24 14.5342 261.698 14.4552 261.176 14.3012C260.667 14.1704 260.184 13.9517 259.75 13.6551C259.337 13.3459 258.995 12.9528 258.745 12.5016C258.481 11.9988 258.349 11.4372 258.362 10.8695V6.5619C258.349 6.00087 258.479 5.44581 258.74 4.94894C258.983 4.49571 259.319 4.09925 259.726 3.7859C260.143 3.46884 260.615 3.23189 261.119 3.0871C261.64 2.93067 262.182 2.85166 262.726 2.85258C263.374 2.85037 264.019 2.94063 264.641 3.12061C265.23 3.28236 265.776 3.5734 266.239 3.97257L265.157 5.71952Z" fill="white"/>
<path d="M272.845 11.6688C272.576 12.5199 272.103 13.2922 271.467 13.9183C270.92 14.3691 270.228 14.604 269.519 14.5788H268.299V12.7744H269.318C269.558 12.7861 269.796 12.7332 270.008 12.6213C270.194 12.4993 270.339 12.3242 270.424 12.1187C270.424 12.0661 270.467 12.0134 270.491 11.9703C270.515 11.9273 270.534 11.8794 270.558 11.8363L266.926 2.9292H269.318L270.687 6.67199C270.878 7.18412 271.046 7.66274 271.199 8.10786C271.352 8.55298 271.472 8.92151 271.572 9.21347H271.658L272.577 6.53799C272.601 6.47099 272.644 6.34176 272.721 6.14552C272.797 5.94929 272.874 5.72434 272.96 5.46589L273.247 4.66657C273.348 4.38897 273.439 4.12575 273.53 3.88165L273.754 3.25466C273.817 3.08235 273.855 2.97228 273.865 2.9292H276.138L272.845 11.6688Z" fill="white"/>
<path d="M276.323 12.4202C276.577 12.2318 276.797 12.0021 276.974 11.7406C277.167 11.445 277.316 11.1224 277.414 10.7834C277.545 10.3503 277.638 9.9067 277.692 9.45757C277.759 8.95024 277.807 8.35195 277.84 7.65795L278.06 2.9292H285.846C285.846 4.5246 285.846 6.10884 285.846 7.68191C285.846 9.25498 285.846 10.8408 285.846 12.4394H286.846V17.0054H284.76V14.4305H277.558V17.0054H275.467V12.4059L276.323 12.4202ZM280.113 4.94897L279.979 7.71062C279.979 8.18924 279.932 8.66785 279.898 9.1034C279.865 9.53894 279.817 9.96492 279.75 10.3574C279.685 10.7379 279.589 11.1125 279.463 11.4774C279.342 11.819 279.173 12.1415 278.96 12.4346H283.592V4.94897H280.113Z" fill="white"/>
<path d="M294.805 12.0708H290.795L290.044 14.4639H287.604L291.647 2.94824H293.987L297.997 14.4639H295.509L294.805 12.0708ZM291.413 10.1563H294.188L293.738 8.68691L292.834 5.64288H292.767L291.882 8.63906L291.413 10.1563Z" fill="white"/>
<path d="M304.251 2.9291C304.761 2.91391 305.265 3.02576 305.721 3.25456C306.119 3.45952 306.47 3.74662 306.749 4.09694C307.023 4.44262 307.227 4.83739 307.352 5.25998C307.478 5.66939 307.543 6.09519 307.544 6.52352C307.541 6.95597 307.465 7.38484 307.319 7.79188C307.172 8.21184 306.952 8.60237 306.668 8.94535C306.379 9.29527 306.02 9.58199 305.615 9.78772C305.171 10.013 304.678 10.1248 304.18 10.1132H301.39V14.4208H299.098V2.9291H304.251ZM301.38 8.05991H303.773C303.99 8.07599 304.209 8.04545 304.413 7.97034C304.618 7.89523 304.804 7.77728 304.96 7.62437C305.231 7.32508 305.375 6.932 305.362 6.52831C305.374 6.1188 305.226 5.72065 304.95 5.41791C304.795 5.26725 304.61 5.15069 304.408 5.07568C304.205 5.00067 303.989 4.96889 303.773 4.98237H301.433L301.38 8.05991Z" fill="white"/>
<path d="M315.531 5.71952C315.197 5.42986 314.803 5.21598 314.378 5.09252C313.988 4.97924 313.584 4.91967 313.177 4.91544C312.916 4.91644 312.657 4.95348 312.407 5.02551C312.155 5.09447 311.922 5.21692 311.722 5.38447C311.517 5.56348 311.353 5.78579 311.244 6.03542C311.11 6.3364 311.045 6.66335 311.052 6.99267V10.343C311.043 10.6725 311.108 10.9999 311.244 11.3003C311.355 11.5464 311.518 11.7652 311.722 11.9416C311.926 12.1076 312.16 12.2328 312.411 12.3101C312.658 12.3863 312.914 12.4251 313.172 12.425C313.57 12.4244 313.966 12.3697 314.35 12.2623C314.785 12.1267 315.19 11.9108 315.546 11.6257L316.632 13.3966C316.173 13.7735 315.644 14.0579 315.077 14.2342C314.451 14.4373 313.797 14.5391 313.139 14.5357C312.594 14.5346 312.053 14.4556 311.531 14.3012C311.027 14.1531 310.552 13.9183 310.129 13.6072C309.716 13.298 309.374 12.9049 309.124 12.4537C308.86 11.9509 308.728 11.3893 308.741 10.8216V6.51404C308.728 5.95302 308.858 5.39796 309.119 4.90109C309.362 4.44786 309.698 4.0514 310.105 3.73804C310.522 3.42099 310.994 3.18404 311.497 3.03925C312.019 2.88248 312.561 2.80346 313.105 2.80473C313.753 2.80252 314.397 2.89277 315.019 3.07275C315.609 3.23451 316.155 3.52552 316.618 3.92469L315.531 5.71952Z" fill="white"/>
<path d="M322.699 4.98248V14.4448H320.411V4.98248H317.354V2.9292H325.742V4.98248H322.699Z" fill="white"/>
<path d="M335.652 11.0229C335.656 11.4722 335.583 11.9189 335.437 12.3439C335.299 12.7431 335.082 13.1109 334.801 13.4256C334.514 13.7459 334.161 14.0006 333.767 14.1722C333.313 14.3619 332.824 14.4548 332.331 14.4451H326.934V2.92943H332.116C332.627 2.91694 333.135 3.00137 333.614 3.17829C334.005 3.329 334.358 3.56436 334.648 3.86751C334.92 4.15387 335.129 4.49482 335.26 4.86784C335.39 5.25169 335.456 5.65429 335.456 6.05961C335.447 6.51572 335.33 6.96322 335.117 7.36623C334.878 7.81863 334.5 8.18265 334.04 8.40486C334.307 8.53065 334.55 8.70237 334.758 8.9122C334.945 9.11392 335.106 9.33914 335.236 9.58225C335.363 9.81402 335.463 10.0598 335.533 10.3146C335.604 10.5444 335.644 10.7826 335.652 11.0229ZM333.097 6.28934C333.107 6.1119 333.079 5.93438 333.013 5.76909C332.948 5.60379 332.848 5.45468 332.719 5.33209C332.38 5.08206 331.962 4.96307 331.542 4.99705H329.221V7.52419H331.575C331.976 7.54684 332.372 7.42829 332.695 7.18915C332.827 7.08072 332.933 6.94293 333.002 6.78674C333.072 6.63055 333.105 6.46024 333.097 6.28934ZM333.231 10.9416C333.239 10.7438 333.207 10.5465 333.135 10.362C333.063 10.1775 332.954 10.0098 332.815 9.86944C332.499 9.5872 332.084 9.44099 331.662 9.4626H329.221V12.3918H331.676C331.886 12.4062 332.097 12.379 332.296 12.3116C332.496 12.2442 332.68 12.1381 332.839 11.9993C332.972 11.8586 333.076 11.6924 333.143 11.5106C333.211 11.3288 333.241 11.1352 333.231 10.9416Z" fill="white"/>
<path d="M337.376 2.9292H345.315V4.98248H339.663V7.62448H344.492V9.68254H339.663V12.3915H345.31V14.4448H337.371L337.376 2.9292Z" fill="white"/>
<path d="M353.541 14.4448V9.6299H349.296V14.4448H347.004V2.9292H349.296V7.5766H353.541V2.9292H355.866V14.4448H353.541Z" fill="white"/>
<path d="M364.317 14.4448V9.6299H360.073V14.4448H357.785V2.9292H360.073V7.5766H364.317V2.9292H366.643V14.4448H364.317Z" fill="white"/>
<path d="M368.615 14.4448V2.9292H370.907V7.30857H373.563C374.083 7.29803 374.6 7.38908 375.085 7.5766C375.511 7.74013 375.897 7.99126 376.219 8.31369C376.536 8.63079 376.781 9.01286 376.937 9.43365C377.11 9.8924 377.196 10.3793 377.191 10.8695C377.189 11.3017 377.122 11.7311 376.99 12.1427C376.857 12.5759 376.636 12.9766 376.339 13.3187C376.042 13.6609 375.677 13.9369 375.267 14.1289C374.758 14.3585 374.203 14.4698 373.645 14.4544L368.615 14.4448ZM370.907 12.3915H373.3C373.75 12.4114 374.189 12.2552 374.525 11.956C374.678 11.8195 374.799 11.6519 374.882 11.4645C374.964 11.2772 375.006 11.0743 375.004 10.8695C375.009 10.6644 374.968 10.4607 374.885 10.2729C374.803 10.0852 374.68 9.91789 374.525 9.78303C374.18 9.48784 373.734 9.33703 373.281 9.36187H370.927L370.907 12.3915ZM380.564 2.9292V14.4448H378.277V2.9292H380.564Z" fill="white"/>
<path d="M389.506 6.95439L388.367 8.71092L387.889 9.48628C387.693 9.7926 387.482 10.1229 387.248 10.4818L386.525 11.5826L385.817 12.6883L385.176 13.6838L384.697 14.4592H382.625V2.92919H384.912V10.501H384.979L387.372 6.739L389.822 2.91003H391.909V14.4257H389.616V6.95439H389.506ZM387.401 2.52235C386.991 2.53556 386.585 2.44676 386.219 2.2639C385.921 2.10885 385.66 1.89178 385.453 1.62733C385.259 1.38472 385.115 1.10673 385.027 0.808872C384.942 0.546235 384.886 0.274967 384.86 0H386.396C386.399 0.122463 386.422 0.243649 386.463 0.358966C386.507 0.487947 386.572 0.609092 386.654 0.717932C386.739 0.829766 386.845 0.924059 386.965 0.995541C387.098 1.06954 387.249 1.10596 387.401 1.10085C387.567 1.10788 387.732 1.07158 387.879 0.995541C388.002 0.925406 388.11 0.830946 388.195 0.717932C388.279 0.610239 388.344 0.488786 388.387 0.358966C388.428 0.243649 388.45 0.122463 388.454 0H389.975C389.935 0.273747 389.874 0.544113 389.793 0.808872C389.702 1.10515 389.558 1.38244 389.368 1.62733C389.139 1.92272 388.843 2.15843 388.504 2.31429C388.165 2.47016 387.793 2.54154 387.42 2.52235H387.401Z" fill="white"/>
<path d="M80.3745 29.8073C80.1049 30.6578 79.6299 31.4288 78.9916 32.0521C78.4474 32.5041 77.7556 32.7393 77.0487 32.7126H75.8285V30.9081H76.8621C77.1009 30.9206 77.3387 30.8694 77.5512 30.7598C77.7311 30.6413 77.8752 30.4758 77.9675 30.2812C77.9861 30.2285 78.0084 30.1773 78.0345 30.128C78.0345 30.0849 78.0776 30.0418 78.1015 29.994L74.4551 21.0629H76.8477L78.2163 24.8057C78.4078 25.3178 78.5752 25.7965 78.7284 26.2416C78.8815 26.6867 79.0012 27.0552 79.1017 27.3424H79.1878L80.1066 24.6669C80.1066 24.5999 80.1735 24.4707 80.2501 24.2745C80.3267 24.0782 80.3985 23.8533 80.4894 23.5996C80.5803 23.3459 80.676 23.0731 80.7717 22.7955L81.0588 22.0106C81.1498 21.7665 81.2216 21.5319 81.2838 21.3836C81.346 21.2352 81.3795 21.1012 81.3938 21.0581H83.6669L80.3745 29.8073Z" fill="white"/>
<path d="M91.3376 32.5781V27.7632H87.0929V32.5781H84.8008V21.0625H87.0929V25.7099H91.3376V21.0625H93.6584V32.5781H91.3376Z" fill="white"/>
<path d="M102.534 25.0734L101.395 26.83L100.917 27.6053C100.725 27.9117 100.51 28.2467 100.275 28.6009C100.041 28.9551 99.7969 29.3236 99.5577 29.7065C99.3184 30.0894 99.0791 30.4531 98.8446 30.8073C98.6102 31.1615 98.4044 31.4965 98.2034 31.8029L97.701 32.5782H95.6289V21.0626H97.9163V28.6344H97.9833L100.376 24.8724L102.826 21.0435H104.912V32.5591H102.62V25.0734H102.534Z" fill="white"/>
<path d="M115.622 29.1562C115.624 29.6058 115.549 30.0525 115.402 30.4772C115.266 30.8787 115.049 31.2484 114.766 31.5637C114.477 31.881 114.125 32.1339 113.732 32.3055C113.278 32.4957 112.789 32.5887 112.296 32.5784H106.898V21.0627H112.076C112.587 21.0502 113.095 21.1347 113.574 21.3116C113.965 21.4623 114.318 21.6977 114.608 22.0008C114.881 22.2882 115.09 22.631 115.22 23.0059C115.355 23.3872 115.423 23.7887 115.421 24.1929C115.413 24.6498 115.295 25.0981 115.077 25.4996C114.84 25.9534 114.462 26.3179 114 26.5382C114.267 26.6639 114.51 26.8357 114.718 27.0455C115.1 27.4373 115.377 27.9198 115.522 28.4479C115.586 28.6787 115.619 28.9167 115.622 29.1562ZM113.062 24.4227C113.072 24.2457 113.044 24.0687 112.979 23.9035C112.915 23.7384 112.816 23.589 112.689 23.4654C112.348 23.2186 111.931 23.1015 111.512 23.1352H109.186V25.6575H111.54C111.943 25.6825 112.341 25.5638 112.665 25.3225C112.796 25.2136 112.9 25.0756 112.969 24.9194C113.038 24.7632 113.07 24.5932 113.062 24.4227ZM113.196 29.0796C113.204 28.8819 113.171 28.6846 113.1 28.5001C113.028 28.3156 112.919 28.1479 112.78 28.0075C112.624 27.8664 112.442 27.7578 112.244 27.6879C112.046 27.6181 111.836 27.5884 111.626 27.6007H109.186V30.5251H111.641C111.851 30.5409 112.062 30.5142 112.262 30.4468C112.462 30.3794 112.646 30.2726 112.804 30.1326C112.936 29.9925 113.04 29.827 113.107 29.6461C113.174 29.4652 113.205 29.2725 113.196 29.0796Z" fill="white"/>
<path d="M117.342 21.0625H125.281V23.1206H119.634V25.7578H124.462V27.8158H119.634V30.5249H125.281V32.5781H117.342V21.0625Z" fill="white"/>
<path d="M132.118 21.0626C132.597 21.0472 133.073 21.145 133.508 21.3478C133.943 21.5507 134.324 21.8531 134.62 22.2304C134.892 22.5764 135.095 22.9712 135.218 23.3935C135.344 23.803 135.408 24.2288 135.41 24.6571C135.402 25.5405 135.093 26.3948 134.534 27.0789C134.244 27.4299 133.886 27.7181 133.481 27.926C133.036 28.1491 132.544 28.2608 132.046 28.2515H129.246V32.5591H126.959V21.0626H132.118ZM129.246 26.1934H131.586C131.804 26.2095 132.022 26.179 132.227 26.1038C132.431 26.0287 132.618 25.9108 132.773 25.7579C133.035 25.451 133.179 25.0607 133.179 24.6571C133.179 24.2534 133.035 23.8631 132.773 23.5562C132.619 23.4046 132.434 23.2874 132.231 23.2123C132.028 23.1372 131.812 23.106 131.596 23.1207H129.246V26.1934Z" fill="white"/>
<path d="M143.368 23.8531C143.033 23.5617 142.64 23.3448 142.215 23.2166C141.823 23.1048 141.417 23.0468 141.009 23.0443C140.75 23.044 140.492 23.0794 140.243 23.1495C139.991 23.2184 139.756 23.3408 139.554 23.5085C139.351 23.6897 139.188 23.9115 139.076 24.1594C138.942 24.4604 138.876 24.7873 138.884 25.1167V28.467C138.875 28.7965 138.94 29.1239 139.076 29.4243C139.186 29.6707 139.349 29.8897 139.554 30.0656C139.756 30.2315 139.989 30.3567 140.239 30.4342C140.484 30.5135 140.741 30.5539 140.999 30.5538C141.398 30.5522 141.794 30.4958 142.177 30.3863C142.613 30.2537 143.019 30.0375 143.373 29.7497L144.459 31.5206C144 31.8985 143.472 32.1831 142.904 32.3582C142.286 32.5588 141.64 32.6606 140.99 32.6597C140.447 32.6587 139.907 32.5797 139.387 32.4252C138.881 32.2772 138.405 32.0423 137.98 31.7312C137.568 31.423 137.226 31.0296 136.98 30.5778C136.713 30.0759 136.582 29.5136 136.597 28.9456V24.638C136.584 24.0776 136.713 23.523 136.97 23.0251C137.214 22.5743 137.55 22.1798 137.956 21.8668C138.373 21.5455 138.847 21.3067 139.353 21.1633C139.873 21.0065 140.413 20.9274 140.956 20.9287C141.604 20.9292 142.248 21.0195 142.87 21.1968C143.459 21.3575 144.003 21.6487 144.464 22.0487L143.368 23.8531Z" fill="white"/>
<path d="M152.892 25.0734L151.738 26.83L151.26 27.6053L150.619 28.6009L149.896 29.7065L149.188 30.8073C148.958 31.1663 148.743 31.4965 148.542 31.8029C148.341 32.1092 148.173 32.3676 148.063 32.5782H145.996V21.0626H148.283V28.6344H148.35L150.743 24.8724L153.193 21.0435H155.28V32.5591H152.987V25.0734H152.892Z" fill="white"/>
<path d="M161.816 23.1206V32.5781H159.529V23.1206H156.471V21.0625H164.859V23.1206H161.816Z" fill="white"/>
<path d="M166.066 21.0625H174.001V23.1206H168.354V25.7578H173.182V27.8158H168.354V30.5249H174.001V32.5781H166.066V21.0625Z" fill="white"/>
<path d="M180.254 23.1206V32.5781H177.967V23.1206H174.904V21.0625H183.322V23.1206H180.254Z" fill="white"/>
<path d="M195.246 32.5781V23.1206H191.001V32.5781H188.709V21.0625H197.567V32.5781H195.246Z" fill="white"/>
<path d="M204.605 29.8073C204.336 30.6578 203.861 31.4288 203.222 32.0521C202.678 32.5041 201.986 32.7393 201.279 32.7126H200.069V30.9081H201.102C201.341 30.9206 201.579 30.8694 201.791 30.7598C201.971 30.6413 202.115 30.4758 202.208 30.2812C202.226 30.2285 202.249 30.1773 202.275 30.128C202.275 30.0849 202.318 30.0418 202.342 29.994L198.695 21.0868H201.088L202.457 24.8296C202.648 25.3418 202.815 25.8204 202.969 26.2655C203.122 26.7106 203.241 27.0792 203.342 27.3663H203.418L204.337 24.6909C204.337 24.6238 204.404 24.4946 204.481 24.2984C204.557 24.1021 204.629 23.8772 204.72 23.6235L205.007 22.8194C205.103 22.5418 205.199 22.2786 205.289 22.0345C205.38 21.7904 205.452 21.5559 205.514 21.4075C205.577 21.2591 205.61 21.1251 205.624 21.082H207.898L204.605 29.8073Z" fill="white"/>
<path d="M213.612 23.1206V32.5781H211.324V23.1206H208.262V21.0625H216.655V23.1206H213.612Z" fill="white"/>
<path d="M217.855 21.0625H225.794V23.1206H220.167V25.7578H224.995V27.8158H220.167V30.5249H225.813V32.5781H217.855V21.0625Z" fill="white"/>
<path d="M234.404 25.0735L233.27 26.8301L232.791 27.6054C232.6 27.9117 232.384 28.2468 232.15 28.601C231.915 28.9551 231.671 29.3237 231.432 29.7066L230.724 30.8074C230.494 31.1664 230.279 31.4966 230.078 31.8029L229.599 32.5783H227.527V21.0627H229.82V28.6345H229.882L232.274 24.8725L234.724 21.0435H236.811V32.5592H234.524V25.0735H234.404ZM232.298 20.6463C231.926 20.6588 231.557 20.5844 231.219 20.4291C230.881 20.2737 230.583 20.0416 230.351 19.7513C230.16 19.5052 230.015 19.2262 229.925 18.928C229.842 18.6648 229.786 18.3937 229.757 18.1191H231.293C231.296 18.2416 231.319 18.3629 231.36 18.4781C231.407 18.6073 231.473 18.7284 231.557 18.8371C231.638 18.9499 231.743 19.0445 231.863 19.1147C231.996 19.1897 232.146 19.2277 232.298 19.2248C232.449 19.2281 232.599 19.1945 232.734 19.127C232.869 19.0594 232.986 18.9599 233.074 18.8371C233.157 18.7284 233.224 18.6073 233.27 18.4781C233.311 18.3629 233.334 18.2416 233.337 18.1191H234.854C234.815 18.3933 234.755 18.6639 234.672 18.928C234.581 19.2262 234.437 19.5052 234.246 19.7513C234.037 20.0106 233.778 20.2255 233.485 20.383C233.118 20.5697 232.71 20.6603 232.298 20.6463Z" fill="white"/>
<path d="M249.78 23.8533C249.445 23.5644 249.051 23.3506 248.627 23.2263C248.236 23.1145 247.832 23.0565 247.426 23.054C247.165 23.054 246.906 23.0894 246.655 23.1593C246.404 23.2283 246.17 23.3507 245.971 23.5183C245.768 23.6995 245.605 23.9212 245.492 24.1692C245.358 24.4702 245.293 24.7971 245.301 25.1264V28.4768C245.291 28.8063 245.357 29.1336 245.492 29.434C245.61 29.6828 245.781 29.902 245.995 30.0754C246.196 30.2422 246.429 30.3674 246.679 30.4439C246.925 30.524 247.182 30.5644 247.44 30.5636C247.838 30.5613 248.234 30.5049 248.617 30.3961C249.053 30.2634 249.46 30.0472 249.813 29.7595L250.9 31.5304C250.44 31.9073 249.912 32.1917 249.344 32.368C248.719 32.5711 248.064 32.6729 247.406 32.6695C246.862 32.6679 246.321 32.589 245.799 32.435C245.294 32.2869 244.82 32.052 244.396 31.741C243.983 31.433 243.64 31.0396 243.392 30.5875C243.128 30.0847 242.996 29.5231 243.009 28.9554V24.6478C242.996 24.0868 243.126 23.5317 243.387 23.0348C243.629 22.583 243.965 22.1881 244.373 21.8766C244.788 21.5562 245.261 21.3175 245.765 21.173C246.287 21.0166 246.828 20.9376 247.373 20.9385C248.02 20.9386 248.665 21.0288 249.287 21.2065C249.877 21.3672 250.423 21.6584 250.885 22.0585L249.78 23.8533Z" fill="white"/>
<path d="M261.145 28.9024C261.158 29.4679 261.038 30.0286 260.796 30.5393C260.566 30.9998 260.24 31.4049 259.838 31.7263C259.42 32.0591 258.941 32.3063 258.427 32.4538C257.309 32.7791 256.123 32.7791 255.005 32.4538C254.483 32.3092 253.995 32.0619 253.57 31.7263C253.168 31.4049 252.842 30.9998 252.613 30.5393C252.37 30.0286 252.25 29.4679 252.263 28.9024V24.6523C252.247 24.1129 252.361 23.5774 252.596 23.0916C252.831 22.6058 253.18 22.1839 253.613 21.8619C254.044 21.5419 254.531 21.3035 255.048 21.1583C255.587 21.0031 256.144 20.9242 256.704 20.9238C257.264 20.9239 257.821 21.0094 258.355 21.1775C258.874 21.331 259.36 21.5775 259.791 21.905C260.202 22.2225 260.537 22.6281 260.772 23.092C261.026 23.596 261.153 24.1548 261.14 24.7193L261.145 28.9024ZM258.857 25.1405C258.866 24.8116 258.803 24.4847 258.671 24.1832C258.561 23.9366 258.397 23.7175 258.192 23.5419C257.995 23.3747 257.765 23.2493 257.518 23.1733C257.265 23.0967 257.002 23.058 256.738 23.0585C256.472 23.0584 256.207 23.0971 255.953 23.1733C255.702 23.2481 255.469 23.3735 255.268 23.5419C255.063 23.7175 254.9 23.9366 254.79 24.1832C254.658 24.4847 254.594 24.8116 254.603 25.1405V28.4908C254.596 28.8196 254.66 29.146 254.79 29.4481C254.897 29.699 255.061 29.9218 255.268 30.099C255.468 30.2666 255.701 30.389 255.953 30.458C256.208 30.5303 256.472 30.5674 256.738 30.568C257.001 30.5677 257.264 30.5307 257.518 30.458C257.765 30.3868 257.995 30.2645 258.192 30.099C258.4 29.9218 258.564 29.699 258.671 29.4481C258.801 29.146 258.864 28.8196 258.857 28.4908V25.1405Z" fill="white"/>
<path d="M271.812 28.9024C271.824 29.4683 271.703 30.029 271.458 30.5393C271.231 31.0008 270.904 31.4062 270.501 31.7263C270.076 32.0619 269.588 32.3092 269.066 32.4538C267.948 32.7791 266.761 32.7791 265.644 32.4538C265.132 32.3062 264.654 32.059 264.237 31.7263C263.835 31.406 263.508 31.0006 263.28 30.5393C263.037 30.0286 262.917 29.4679 262.931 28.9024V24.6523C262.917 24.0908 263.044 23.5347 263.299 23.0345C263.527 22.5773 263.854 22.1767 264.256 21.8619C264.688 21.5414 265.174 21.303 265.692 21.1583C266.228 21.0028 266.784 20.9239 267.343 20.9238C267.903 20.9239 268.46 21.0094 268.994 21.1775C269.513 21.3299 269.999 21.5765 270.429 21.905C270.861 22.2343 271.208 22.6608 271.444 23.1499C271.679 23.6389 271.795 24.1767 271.784 24.7193L271.812 28.9024ZM269.52 25.1405C269.528 24.8121 269.466 24.4858 269.338 24.1832C269.226 23.9381 269.063 23.7196 268.86 23.5419C268.659 23.376 268.429 23.2508 268.18 23.1733C267.929 23.0968 267.668 23.0581 267.405 23.0585C267.138 23.0584 266.872 23.0971 266.615 23.1733C266.365 23.2481 266.132 23.3735 265.931 23.5419C265.727 23.7188 265.564 23.9375 265.453 24.1832C265.321 24.4847 265.257 24.8116 265.266 25.1405V28.4908C265.259 28.8196 265.323 29.146 265.453 29.4481C265.559 29.6933 265.719 29.9113 265.921 30.0862C266.123 30.261 266.362 30.3881 266.62 30.458C266.877 30.5304 267.143 30.5674 267.41 30.568C267.672 30.5677 267.933 30.5307 268.185 30.458C268.442 30.3871 268.68 30.2596 268.881 30.0849C269.082 29.9101 269.242 29.6926 269.348 29.4481C269.473 29.1448 269.535 28.819 269.53 28.4908L269.52 25.1405Z" fill="white"/>
<path d="M273.697 21.0625H281.22V23.1206H275.989V25.4419H278.612C279.139 25.4334 279.664 25.5243 280.157 25.7099C280.587 25.8742 280.978 26.1251 281.306 26.447C281.623 26.7663 281.868 27.1498 282.024 27.5717C282.196 28.0306 282.28 28.5176 282.273 29.0076C282.272 29.4398 282.204 29.8693 282.072 30.2808C281.94 30.7032 281.724 31.0942 281.435 31.4294C281.129 31.7843 280.75 32.0698 280.325 32.267C279.814 32.4978 279.258 32.6091 278.698 32.5925H273.697V21.0625ZM275.989 30.5249H278.329C278.785 30.5463 279.231 30.3901 279.574 30.0893C279.726 29.9528 279.848 29.7852 279.93 29.5978C280.013 29.4105 280.055 29.2076 280.052 29.0028C280.058 28.7975 280.019 28.5934 279.936 28.4054C279.853 28.2174 279.729 28.0504 279.574 27.9164C279.219 27.6255 278.769 27.477 278.31 27.5H275.989V30.5249Z" fill="white"/>
<path d="M291.47 30.5249H294.695V21.0625H297.021V30.5584H298.021V35.1818H295.949V32.5877H283.65V21.0625H285.938V30.5249H289.182V21.0625H291.47V30.5249Z" fill="white"/>
<path d="M299.322 21.0625H307.261V23.1206H301.61V25.7578H306.443V27.8158H301.61V30.5249H307.261V32.5781H299.322V21.0625Z" fill="white"/>
<path d="M315.468 32.5781V27.7632H311.224V32.5781H308.932V21.0625H311.224V25.7099H315.468V21.0625H317.789V32.5781H315.468Z" fill="white"/>
<path d="M326.666 25.0734L325.528 26.83L325.049 27.6053C324.853 27.9117 324.642 28.2467 324.408 28.6009L323.685 29.7065L322.977 30.8073L322.336 31.8029L321.857 32.5782H319.785V21.0626H322.073V28.6344H322.14L324.532 24.8724L326.982 21.0435H329.069V32.5591H326.777V25.0734H326.666Z" fill="white"/>
<path d="M339.533 21.0628V32.5784H337.241V28.0028H335.906C335.692 28.0013 335.479 28.0238 335.27 28.0698C335.083 28.112 334.907 28.1918 334.753 28.3043C334.581 28.4323 334.439 28.5955 334.336 28.7829C334.195 29.0206 334.087 29.2767 334.016 29.5439L333.15 32.5832H330.623L331.58 29.4243C331.7 29.0364 331.85 28.6586 332.03 28.2947C332.206 27.9618 332.48 27.6911 332.815 27.5194C332.494 27.4264 332.198 27.2629 331.949 27.0408C331.718 26.8376 331.523 26.5984 331.37 26.3324C331.22 26.0626 331.11 25.7724 331.044 25.4709C330.978 25.1707 330.944 24.8642 330.944 24.5567C330.945 24.1191 331.016 23.6845 331.154 23.2692C331.287 22.8537 331.506 22.4706 331.795 22.1445C332.099 21.8051 332.471 21.5342 332.887 21.3499C333.379 21.1386 333.911 21.0358 334.447 21.0484L339.533 21.0628ZM337.241 23.1208H334.935C334.708 23.1019 334.481 23.129 334.265 23.2006C334.05 23.2722 333.851 23.3867 333.681 23.5372C333.405 23.8485 333.262 24.256 333.284 24.6716C333.271 24.8613 333.302 25.0514 333.374 25.2273C333.446 25.4031 333.558 25.5602 333.7 25.6862C334.05 25.9337 334.474 26.0537 334.901 26.0261H337.241V23.1208Z" fill="white"/>
</svg>
