<svg width="303" height="177" viewBox="0 0 303 177" fill="none" xmlns="http://www.w3.org/2000/svg">
<path d="M6.17041 107.474H226.83C227.942 110.066 229.055 112.67 230.168 115.262C156.626 115.262 83.0695 115.262 9.49776 115.262C8.39607 112.67 7.30546 110.066 6.17041 107.474Z" fill="white"/>
<path d="M269.595 96.6752C272.389 106.466 272.934 116.937 269.918 126.751C259.803 115.432 249.821 104.044 239.772 92.6794C260.215 93.0416 280.646 92.8605 301.088 92.6794C301.266 86.3517 301.377 79.9677 299.975 73.7644C225.929 73.7644 151.883 73.7644 77.836 73.7644C79.2828 72.0741 80.7369 70.3913 82.1982 68.7158C154.345 68.7158 226.485 68.7158 298.618 68.7158C296.172 63.1043 293.19 57.751 289.715 52.7327C218.258 52.7855 146.808 52.8462 75.3656 52.9138C64.2376 63.8938 53.2541 75.0098 42.1372 85.9894C37.3855 75.5869 34.4363 63.8259 36.8511 52.3819C39.3329 38.8891 48.9029 27.728 60.5208 21.2646C81.4082 9.22063 106.346 7.18313 129.849 9.05086C165.792 12.4467 201.069 25.3396 230.291 47.0504C232.294 48.8501 234.909 49.1785 237.491 49.0202C253.927 48.9408 270.341 49.0202 286.755 49.0202C281.497 42.9421 275.597 37.4719 269.162 32.7087C241.441 12.673 207.556 3.27785 174.027 0.232905C158.671 0.0291542 143.292 -0.242475 127.957 0.414057C92.6587 3.94574 56.6481 14.3597 28.7277 37.4402C12.4695 50.7405 0.295404 70.8553 1.68642 92.7022C78.6484 92.7022 155.621 92.7022 232.606 92.7022C244.172 104.927 255.719 117.152 267.248 129.377C184.61 129.309 101.969 129.226 19.3244 129.128C48.558 159.487 90.9672 172.142 131.54 176.183C173.616 179.444 217.449 173.207 254.929 152.695C276.328 140.81 296.67 122.133 301.422 96.7318C290.75 96.6752 280.189 96.709 269.595 96.6752ZM207.801 164.411C166.215 168.113 123.995 156.136 88.5634 134.154C147.914 134.026 207.263 133.931 266.613 133.871C254.172 154.076 229.98 162.113 207.801 164.411Z" fill="white"/>
</svg>
