<svg width="24" height="24" viewBox="0 0 24 24" fill="none" xmlns="http://www.w3.org/2000/svg">
<path d="M2 2L22 22" stroke="white" stroke-width="2" stroke-linecap="round" stroke-linejoin="round"/>
<path d="M18.8896 13.23C18.9619 12.824 18.9987 12.4124 18.9996 12V10" stroke="white" stroke-width="2" stroke-linecap="round" stroke-linejoin="round"/>
<path d="M4.99976 10V12C4.97942 13.3992 5.37888 14.7723 6.1466 15.9422C6.91431 17.1121 8.01504 18.0251 9.30672 18.5633C10.5984 19.1015 12.0217 19.2402 13.393 18.9616C14.7643 18.6829 16.0206 17.9997 16.9998 17" stroke="white" stroke-width="2" stroke-linecap="round" stroke-linejoin="round"/>
<path d="M15.0003 9.33999V4.99999C14.9963 4.32636 14.7656 3.6737 14.3455 3.14711C13.9254 2.62053 13.3402 2.25066 12.6843 2.09708C12.0284 1.94349 11.3399 2.01514 10.7297 2.30046C10.1195 2.58579 9.62302 3.06819 9.32031 3.66999" stroke="white" stroke-width="2" stroke-linecap="round" stroke-linejoin="round"/>
<path d="M9 9V12C9.00052 12.593 9.17675 13.1725 9.50643 13.6653C9.83611 14.1582 10.3045 14.5423 10.8523 14.7691C11.4002 14.996 12.0029 15.0554 12.5845 14.9399C13.1661 14.8243 13.7005 14.539 14.12 14.12" stroke="white" stroke-width="2" stroke-linecap="round" stroke-linejoin="round"/>
<path d="M12 19V22" stroke="white" stroke-width="2" stroke-linecap="round" stroke-linejoin="round"/>
</svg>
